<?xml version="1.0" standalone="no"?><svg xmlns="http://www.w3.org/2000/svg" viewBox="0 0 1440 320"><path fill="rgb(7, 114, 255)" fill-opacity="1" d="M0,64L26.7,80C53.3,96,107,128,160,149.3C213.3,171,267,181,320,170.7C373.3,160,427,128,480,122.7C533.3,117,587,139,640,128C693.3,117,747,75,800,58.7C853.3,43,907,53,960,85.3C1013.3,117,1067,171,1120,181.3C1173.3,192,1227,160,1280,144C1333.3,128,1387,128,1413,128L1440,128L1440,0L1413.3,0C1386.7,0,1333,0,1280,0C1226.7,0,1173,0,1120,0C1066.7,0,1013,0,960,0C906.7,0,853,0,800,0C746.7,0,693,0,640,0C586.7,0,533,0,480,0C426.7,0,373,0,320,0C266.7,0,213,0,160,0C106.7,0,53,0,27,0L0,0Z"></path></svg>