<?xml version="1.0" encoding="utf-8"?>
<!-- Generator: Adobe Illustrator 23.0.2, SVG Export Plug-In . SVG Version: 6.00 Build 0)  -->
<svg version="1.1" id="Layer_1" xmlns="http://www.w3.org/2000/svg" xmlns:xlink="http://www.w3.org/1999/xlink" x="0px" y="0px"
	 viewBox="0 0 516.1 383.9" style="enable-background:new 0 0 516.1 383.9;" xml:space="preserve">
<style type="text/css">
	.st0{fill:#FFFAE1;}
	.st1{fill:#FEF8A6;}
	.st2{fill:#525D7A;}
	.st3{fill:#EBECFB;}
	.st4{fill:#CCCFF6;}
	.st5{fill:none;stroke:#414042;stroke-width:0.5;stroke-miterlimit:10;}
	.st6{fill:#536655;}
	.st7{fill:#B9D7BB;}
	.st8{fill:#DCEBDD;}
	.st9{fill:#745C42;}
	.st10{fill:#216460;}
	.st11{fill:#755C42;}
	.st12{fill:#52775D;}
	.st13{fill:#3E5946;}
	.st14{fill:#55535A;}
	.st15{fill:#C6C6C6;}
	.st16{fill-rule:evenodd;clip-rule:evenodd;fill:#A8AFC5;}
	.st17{fill-rule:evenodd;clip-rule:evenodd;fill:#CECECE;stroke:#25386F;stroke-width:0.5;stroke-miterlimit:10;}
	.st18{fill-rule:evenodd;clip-rule:evenodd;fill:#B5B5B5;stroke:#25386F;stroke-width:0.5;stroke-miterlimit:10;}
	.st19{fill-rule:evenodd;clip-rule:evenodd;fill:#FFFFFF;stroke:#25386F;stroke-width:0.5;stroke-miterlimit:10;}
	.st20{fill-rule:evenodd;clip-rule:evenodd;fill:#999BB9;stroke:#25386F;stroke-width:0.5;stroke-miterlimit:10;}
	.st21{fill-rule:evenodd;clip-rule:evenodd;fill:#D8D3F8;stroke:#25386F;stroke-width:0.5;stroke-miterlimit:10;}
	.st22{fill-rule:evenodd;clip-rule:evenodd;fill:#D6D9F8;stroke:#25386F;stroke-width:0.5;stroke-miterlimit:10;}
	.st23{fill:#6D6E71;}
	.st24{fill:none;stroke:#414042;stroke-width:1.5;stroke-miterlimit:10;}
	.st25{fill:#FFFFFF;}
	.st26{fill:#B3B3B3;stroke:#000000;stroke-miterlimit:10;}
	.st27{fill:#7CB5EC;}
	.st28{fill:#E4D354;}
	.st29{fill:#F45B5B;}
	.st30{fill:#EE8800;}
	.st31{fill:#91E8E1;}
	.st32{fill:#C3AEF3;}
	.st33{fill:#CCCCCC;}
	.st34{fill:none;stroke:#A3EDBA;stroke-miterlimit:10;}
	.st35{fill:none;stroke:#F7A35C;}
	.st36{fill:none;stroke:#ED1C24;stroke-miterlimit:10;}
	.st37{fill:none;stroke:#E4D354;}
	.st38{fill:#A3EDBA;}
	.st39{fill:#F7A35C;}
	.st40{fill:#FFFFFF;stroke:#414042;stroke-width:0.5;stroke-miterlimit:10;}
</style>
<title>ganttArtboard 1</title>
<path class="st0" d="M211.5,81.6c1.9-1.2,4.1-1.9,6.3-1.9h2.5c1.2-7.6,7.8-13.2,15.5-13.2c0.1,0,0.3,0,0.4,0l-0.1-0.1
	c0.6,0,1.2,0.1,1.8,0.2c0.7,0.1,1.3,0.2,2,0.4c2.5-7.9,9.1-13.9,17.3-15.6c-0.2-18-14.9-32.4-32.9-32.2c-18,0.2-32.4,14.9-32.2,32.9
	C192.2,65,199.8,76.5,211.5,81.6L211.5,81.6z"/>
<path class="st1" d="M197.1,54.9c0-17.9,14.5-32.5,32.4-32.5c4.9,0,9.8,1.1,14.2,3.3c-14.5-10.6-34.8-7.4-45.4,7.1
	s-7.4,34.8,7.1,45.4c1.6,1.1,3.2,2.1,5,3C202,75,197.1,65.2,197.1,54.9z"/>
<path class="st2" d="M205.7,77.6c-18.2-13.6-17.6-42,2.2-53.9c18.7-11.3,42.8-0.5,48.1,20.3c0,0.1,0.2,0.2,0.3,0.2
	c0.1,0,0.2-0.2,0.2-0.3c-5.5-21.5-30.9-32.3-49.9-19.9c-19.3,12.6-19.2,40.6-1.1,54.2C205.7,78.2,206,77.8,205.7,77.6L205.7,77.6z"
	/>
<path class="st2" d="M224.3,4.3v9.4c0,0.1,0.1,0.3,0.3,0.2c0.1,0,0.2-0.1,0.2-0.2V4.3c0-0.1-0.1-0.3-0.3-0.3
	C224.4,4,224.3,4.1,224.3,4.3z"/>
<path class="st2" d="M247.8,10.4c-1.6,2.7-3.1,5.4-4.7,8.1c-0.1,0.1,0,0.3,0.1,0.3c0.1,0.1,0.3,0,0.3-0.1c1.6-2.7,3.1-5.4,4.7-8.1
	c0.1-0.1,0-0.3-0.1-0.3C248,10.3,247.9,10.3,247.8,10.4L247.8,10.4z"/>
<path class="st2" d="M265.1,27.5c-2.7,1.6-5.4,3.1-8.1,4.7c-0.1,0.1-0.2,0.2-0.1,0.4c0.1,0.1,0.2,0.2,0.3,0.1
	c2.7-1.6,5.4-3.1,8.1-4.7c0.1-0.1,0.2-0.2,0.1-0.4C265.4,27.5,265.2,27.5,265.1,27.5z"/>
<path class="st2" d="M183.9,75.2c2.7-1.6,5.4-3.1,8.1-4.7c0.1-0.1,0.2-0.2,0.1-0.4c-0.1-0.1-0.2-0.2-0.3-0.1
	c-2.7,1.6-5.4,3.1-8.1,4.7c-0.1,0.1-0.2,0.2-0.1,0.4C183.7,75.2,183.8,75.2,183.9,75.2z"/>
<path class="st2" d="M177.4,51.7l9.4,0c0.1,0,0.3-0.1,0.2-0.3c0-0.1-0.1-0.2-0.2-0.2l-9.4,0c-0.1,0-0.3,0.1-0.2,0.3
	C177.2,51.6,177.3,51.7,177.4,51.7z"/>
<path class="st2" d="M183.6,28.1c2.7,1.6,5.4,3.1,8.2,4.7c0.1,0.1,0.3,0,0.3-0.1c0.1-0.1,0-0.3-0.1-0.3c-2.7-1.6-5.4-3.1-8.2-4.7
	c-0.1-0.1-0.3,0-0.4,0.1C183.4,27.9,183.4,28.1,183.6,28.1z"/>
<path class="st2" d="M200.6,10.8c1.6,2.7,3.1,5.4,4.7,8.1c0.1,0.1,0.2,0.2,0.4,0.1c0.1-0.1,0.1-0.2,0.1-0.3
	c-1.6-2.7-3.1-5.4-4.7-8.1C200.9,10.2,200.5,10.5,200.6,10.8z"/>
<path class="st3" d="M432.4,102.2c0,0-6.5,13.2-0.3,25.3l-12.5,0.5C419.6,128,418.8,101.6,432.4,102.2z"/>
<path class="st4" d="M422.6,111.1c0,0-8.8-4.8-12.9,5.2c0,0-5.5-0.9-6.7,6.1c0,0,3.1,5.9,7.2,5.7s11-0.5,11-0.5
	S417.8,118.2,422.6,111.1z"/>
<path class="st5" d="M409.3,115.9h0.2c1-3.6,4.3-6,8-6c1.6,0,3.2,0.5,4.5,1.3c1-6.2,6.8-10.5,13.1-9.6c4.3,0.7,7.9,3.7,9.2,7.9
	c0.7-0.2,1.4-0.3,2-0.3c3.9,0,7.2,2.8,7.8,6.6h1.3c3.2,0,5.9,2.6,5.9,5.9v0.4c0,3.2-2.6,5.9-5.9,5.9h-46.1c-3.2,0-5.9-2.6-5.9-5.9
	v-0.4C403.4,118.5,406.1,115.9,409.3,115.9z"/>
<path class="st5" d="M447.2,128h8.2c3.2,0,5.9-2.6,5.9-5.9v-0.4c0-3.2-2.6-5.9-5.9-5.9h-1.3c-0.6-3.8-3.9-6.6-7.8-6.6
	c-0.7,0-1.4,0.1-2,0.3c-1.9-6-8.3-9.4-14.3-7.5c-4.2,1.3-7.3,4.9-7.9,9.2c-3.9-2.5-9-1.4-11.5,2.5c-0.4,0.7-0.8,1.4-1,2.2h-0.2
	c-3.2,0-5.9,2.6-5.9,5.9v0.4c0,3.2,2.6,5.9,5.9,5.9H447.2L447.2,128z"/>
<path class="st3" d="M387.5,60.8c0,0-4.6,9.3-0.2,17.8l-8.8,0.3C378.5,78.9,378,60.3,387.5,60.8z"/>
<path class="st4" d="M380.6,67.1c0,0-6.2-3.4-9.1,3.7c0,0-3.9-0.6-4.7,4.3c0,0,2.2,4.2,5,4s7.7-0.3,7.7-0.3S377.3,72,380.6,67.1z"/>
<path class="st5" d="M371.3,70.4h0.2c0.9-3.1,4.2-4.9,7.3-4c0.5,0.2,1.1,0.4,1.6,0.7c0.7-4.4,4.8-7.4,9.2-6.7c3,0.5,5.5,2.6,6.5,5.6
	c2.9-0.8,5.9,0.9,6.8,3.8c0.1,0.2,0.1,0.4,0.1,0.6h0.9c2.3,0,4.1,1.9,4.1,4.1v0.3c0,2.3-1.9,4.1-4.1,4.1h-32.4
	c-2.3,0-4.1-1.9-4.1-4.1v-0.3C367.2,72.2,369,70.4,371.3,70.4z"/>
<path class="st5" d="M397.9,79h5.8c2.3,0,4.1-1.9,4.1-4.1v-0.3c0-2.3-1.9-4.1-4.1-4.1h-0.9c-0.5-3-3.3-5.1-6.3-4.6
	c-0.2,0-0.4,0.1-0.6,0.1c-1.3-4.2-5.8-6.6-10.1-5.3c-2.9,0.9-5.1,3.4-5.6,6.5c-2.7-1.8-6.4-1-8.1,1.8c-0.3,0.5-0.5,1-0.7,1.6h-0.2
	c-2.3,0-4.1,1.9-4.1,4.1v0.3c0,2.3,1.9,4.1,4.1,4.1L397.9,79L397.9,79z"/>
<path class="st3" d="M334.8,80.9c0,0-6.5,13.2-0.3,25.3l-12.5,0.5C322.1,106.6,321.3,80.2,334.8,80.9z"/>
<path class="st4" d="M325,89.7c0,0-8.8-4.8-12.9,5.2c0,0-5.5-0.9-6.7,6.1c0,0,3.1,5.9,7.2,5.7c4.1-0.2,11-0.5,11-0.5
	S320.3,96.8,325,89.7z"/>
<path class="st5" d="M311.8,94.5h0.2c1-3.6,4.3-6,8-6c1.6,0,3.2,0.5,4.5,1.3c1-6.2,6.8-10.5,13.1-9.6c4.3,0.7,7.9,3.7,9.2,7.9
	c0.7-0.2,1.4-0.3,2-0.3c3.9,0,7.2,2.8,7.8,6.6h1.3c3.2,0,5.9,2.6,5.9,5.9v0.4c0,3.2-2.6,5.9-5.9,5.9h-46.1c-3.2,0-5.9-2.6-5.9-5.9
	v-0.4C305.9,97.1,308.5,94.5,311.8,94.5z"/>
<path class="st5" d="M349.6,106.7h8.2c3.2,0,5.9-2.6,5.9-5.9v-0.4c0-3.2-2.6-5.9-5.9-5.9h-1.3c-0.6-3.8-3.9-6.6-7.8-6.6
	c-0.7,0-1.4,0.1-2,0.3c-1.9-6-8.3-9.4-14.3-7.5c-4.2,1.3-7.2,4.9-7.9,9.2c-3.9-2.5-9-1.4-11.5,2.5c-0.4,0.7-0.8,1.4-1,2.2h-0.2
	c-3.2,0-5.9,2.6-5.9,5.9v0.4c0,3.2,2.6,5.9,5.9,5.9L349.6,106.7L349.6,106.7z"/>
<path class="st3" d="M83.3,100.6c0,0-8.1,16.5-0.3,31.6l-15.6,0.6C67.4,132.8,66.4,99.8,83.3,100.6z"/>
<path class="st4" d="M71.1,111.7c0,0-11-6-16.1,6.6c0,0-6.9-1.1-8.4,7.7c0,0,3.9,7.4,9,7.1c5.1-0.3,13.7-0.6,13.7-0.6
	S65.1,120.5,71.1,111.7z"/>
<path class="st5" d="M54.5,117.6h0.3c1.6-5.5,7.4-8.7,12.9-7.1c1,0.3,1.9,0.7,2.7,1.2c1.2-7.8,8.5-13.2,16.3-12
	c5.4,0.8,9.9,4.7,11.5,9.9c0.8-0.2,1.7-0.3,2.6-0.3c4.8,0,8.9,3.5,9.7,8.3h1.6c4,0,7.3,3.3,7.3,7.3v0.5c0,4-3.3,7.3-7.3,7.3H54.5
	c-4,0-7.3-3.3-7.3-7.3V125C47.2,120.9,50.5,117.6,54.5,117.6z"/>
<path class="st5" d="M101.8,132.8h10.3c4,0,7.3-3.3,7.3-7.3V125c0-4-3.3-7.3-7.3-7.3h-1.6c-0.8-4.8-4.9-8.3-9.7-8.3
	c-0.9,0-1.7,0.1-2.6,0.3c-2.3-7.5-10.4-11.8-17.9-9.4c-5.2,1.6-9.1,6.1-9.9,11.5c-4.9-3.1-11.3-1.7-14.4,3.1c-0.5,0.9-1,1.8-1.2,2.7
	h-0.3c-4,0-7.3,3.3-7.3,7.3v0.5c0,4,3.3,7.3,7.3,7.3L101.8,132.8L101.8,132.8z"/>
<path class="st3" d="M145.3,82.9c0,0-3.7,7.5-0.1,14.3l-7.1,0.3C138.1,97.4,137.6,82.5,145.3,82.9z"/>
<path class="st4" d="M139.7,87.9c0,0-5-2.7-7.3,3c0,0-3.1-0.5-3.8,3.5c0,0,1.8,3.4,4.1,3.2s6.2-0.3,6.2-0.3S137,91.9,139.7,87.9z"/>
<path class="st5" d="M132.2,90.6h0.1c0.7-2.5,3.3-4,5.9-3.2c0.4,0.1,0.9,0.3,1.2,0.6c0.5-3.5,3.9-6,7.4-5.4c2.4,0.4,4.5,2.1,5.2,4.5
	c0.4-0.1,0.8-0.2,1.2-0.2c2.2,0,4.1,1.6,4.4,3.8h0.7c1.8,0,3.3,1.5,3.3,3.3v0.2c0,1.8-1.5,3.3-3.3,3.3h-26.1c-1.8,0-3.3-1.5-3.3-3.3
	v-0.2C128.9,92.1,130.4,90.6,132.2,90.6z"/>
<path class="st5" d="M153.6,97.5h4.7c1.8,0,3.3-1.5,3.3-3.3v-0.2c0-1.8-1.5-3.3-3.3-3.3h-0.7c-0.3-2.2-2.2-3.8-4.4-3.8
	c-0.4,0-0.8,0.1-1.2,0.2c-1.1-3.4-4.7-5.3-8.1-4.3c-2.4,0.7-4.1,2.8-4.5,5.2c-0.8-0.5-1.7-0.8-2.6-0.8c-2.1,0-4,1.4-4.5,3.4h-0.1
	c-1.8,0-3.3,1.5-3.3,3.3v0.2c0,1.8,1.5,3.3,3.3,3.3L153.6,97.5L153.6,97.5z"/>
<path class="st6" d="M314.3,348.5c-2-1.9-3.1-4.6,0.1-5.1c-1.6-1-4.2-2.9-3.4-4.5c0.4-0.8,1.3-0.9,2.4-0.9c-1.9-3-0.5-5.1,2.4-3.7
	c-4.1-6.5-7.8-9.3-3.2-16.1c1-1.5,2.3-3.4,3.3-1.8c0.4-3.4,3.1-8.3,6.3-4.4c1.2-2.7,3.6-3,5.6-1.6c0.7-2.7,2.7-3.8,4.6-1.8
	c-0.7-3.9,2.1-8.8,5.8-6.8c3.6-10.2,9.6,1,9.6,1s2-9.7,8.8-2c3-7.4,7.5,1,7.5,1s3.8-3.7,7.5-2.4c2.8,1,6.4,4.8,6.4,4.8
	s4.9-7.6,8.6,0.4c1-5.7,7-3.2,7-3.2s1.1-7,6.3-6c1.6,0.3,2.2,2.9,2.2,2.9s2.4-0.3,3.1,0.2c2.3,1.7,4.4,1.7,2.5,6
	c4.7,0.2,3.5,2.2,5.5,4.8c1.7,2.2,4.1,4.4,4.3,8.6c5.5-6.3,9.2,1.8,9.2,1.8s2.9-2.7,4.4-2.4c4.6,1,2,7.1,2,7.1s4.3,3.1,1.7,6
	c2.6-0.2,4.3,1.7,3.1,4.5c6.6,0.3,2.5,13.8,2.5,13.8s-6.9-7.1-10.4-10.1c-14.8-12.5-37.6-22.2-55.6-21.6
	c-34.2,1.1-54.9,33.5-57.9,44C316.8,360.3,308,345.4,314.3,348.5z"/>
<path class="st7" d="M296.1,326.2c28.4-8.2,51-24.6,81.1-13.7c13,4.7,26.6,8.9,39.2,14.3c10.2,4.3,33.7,20.1,42.4,26.9
	c-3.9,4.7-22.9-7.5-28.3-6.4c-9.5,2-19.1,3.6-28.6,5.9c-18.2,4.3-35.6,7-53.4-1c-20.5-9.2-60.9-1.3-82-5.3
	C271.7,344.6,290.8,325.1,296.1,326.2L296.1,326.2z"/>
<path class="st7" d="M239.3,373.1c-8.6,4-28.6,7.3-49.5,9.7c-0.3,0-0.6,0.1-0.9,0.1l0,0c-7-0.1-11.1-0.1-11.1-0.1H95
	c-2.7-0.6-5.3-1.3-7.9-1.9c-13.7-3.6-53.7-1.9-67.6,1.1c-0.2,0.1-0.5-0.5-0.4-0.4c0.6,1.1,0.3-5,2.6-7.9c2.2-2.8,5.1-6.4,8.2-10.2
	l0,0c5.7-7.1,11.8-15.1,15-21c0.2-0.3,0.3-0.6,0.4-0.8c0.5-0.8,1-1.6,1.7-2.3c4.8-5.2,17.3-12.5,31.7-18.4l0,0
	c2.3-0.9,4.6-1.9,7-2.7l0,0c0.8-0.3,1.7-0.6,2.5-0.9c7.7-2.8,15.7-4.8,23.8-6c2.5-0.4,5-0.6,7.5-0.7c0.3,0,0.5,0,0.8,0
	c2.2,0,4.5,0.1,6.7,0.4l0,0c1.2,0.2,2.4,0.4,3.6,0.8l0,0c0.1,0,0.2,0.1,0.4,0.1c2.3,0.6,4.5,1.8,6.4,3.3c4,3.5,8.5,6.4,13.3,8.8
	c1.3,0.6,2.5,1.2,3.8,1.7l1,0.4c1.4,0.6,2.8,1.2,4.3,1.9l0,0c5,2.4,9.6,5.5,13.7,9.1c0.6,0.5,1.3,1,2,1.6c1.7,1.3,3.6,2.6,5.7,3.9
	l0,0c0.3,0.2,0.6,0.4,0.9,0.6c1.8,1.1,3.6,2.1,5.6,3.2l0,0l0.7,0.4c1.7,0.9,3.4,1.8,5.2,2.8c0.5,0.2,1,0.5,1.5,0.7
	c8,4.1,16.8,8.1,24.3,11.7c0.4,0.2,0.8,0.4,1.2,0.6c2,1,4,1.9,5.8,2.8l0,0C233.1,368.5,237.9,371.3,239.3,373.1z"/>
<path class="st8" d="M489.7,369.5c-13.7-6.2-27.7-10.1-41.6-8c-14.8,2.2-22.4,8.9-36.6,19.5c-1.8,1.3-11,0.6-13.1,1.1h-11.8
	c-2.4-1.7-4.7-3.5-6.8-3.8c-4.9-0.8-9.8-2.2-14.3-4.2c-2-0.8-4.1-0.7-6.1-1.9c-2.9-1.8-3.8-1.1-1.1-5.9c1.6-2.8,4.4-3.9,6.7-5.1
	c0.8-1.5,1.8-2.8,3-4c1.9-1.8,4-3.4,6.3-4.6c0.6-0.3,1.2-0.6,1.7-0.9c0.6-0.3,1.1-0.6,1.7-0.9l0.2-0.1c0.1,0,0.1-0.1,0.2-0.1
	c0.3-0.1,0.5-0.3,0.8-0.4c1.2-0.6,2.4-1.3,3.4-2.1c0.2-0.1,0.4-0.3,0.6-0.4l0,0c0.1-0.1,0.2-0.1,0.3-0.2c0.2-0.1,0.3-0.3,0.5-0.4
	l0,0c4.1-3,8.7-5.4,13.5-7.2c0.7-0.3,1.4-0.5,2.1-0.7c1-0.3,2.1-0.6,3.1-0.8c0.3-0.1,0.7-0.1,1-0.2c0.6-0.1,1.2-0.2,1.9-0.3
	c0.2,0,0.3,0,0.5-0.1c0.2,0,0.3,0,0.5-0.1c0.1,0,0.3,0,0.4,0c0.4,0,0.9-0.1,1.3-0.1l0,0c0.1,0,0.3,0,0.4,0c0.1,0,0.1,0,0.2,0l0.5,0
	l0,0c0.3,0,0.7,0,1,0h0.4c0.5,0,1,0,1.5,0c0.1,0,0.3,0,0.5,0c1.4,0,2.7,0.1,4.1,0.3c0.3,0,0.6,0.1,1,0.1c1.6,0.2,3.2,0.5,4.8,0.8
	c0.6,0.1,1.1,0.3,1.7,0.4l0,0c0,0,0,0,0,0c0.2,0.1,0.4,0.1,0.6,0.2l0,0c0.2,0,0.4,0.1,0.5,0.1c0.1,0,0.2,0.1,0.3,0.1l0,0l1.3,0.4
	c0.1,0,0.2,0.1,0.3,0.1c0.5,0.1,0.9,0.3,1.4,0.4c0.1,0,0.2,0.1,0.3,0.1l0,0c0.2,0.1,0.5,0.1,0.7,0.2l0,0c0.2,0.1,0.4,0.1,0.6,0.2
	l0,0c0.1,0,0.2,0.1,0.3,0.1c0.1,0,0.2,0.1,0.3,0.1c0.2,0.1,0.5,0.2,0.7,0.2c0.1,0,0.2,0.1,0.3,0.1c6.4,2.2,16.3,6.6,26.1,11.3l0,0
	C472.4,360,486.9,367.6,489.7,369.5z"/>
<path class="st8" d="M498.9,382H407c1.7-2,7.6-11.7,10.1-13.9c5.4-4.7,11-9.3,16.7-11.5c8.9-3.4,17.4-3.8,26.3-3.6l0,0
	c1.3,0,2.7,0,4,0.1C475.8,353.3,489.4,363.6,498.9,382z"/>
<path class="st8" d="M418,382H189.8c-0.3,0-0.6,0.1-0.9,0.1l0,0c-7-0.1-11.1-0.1-11.1-0.1c0.4-1.2,6.4-4.9,7.6-5.4l9.5-3.4
	c4.9-2.1,9.8-4.4,14.5-6.8l0,0l2.8-1.4l0,0c2.4-1.2,4.9-2.5,7.3-3.8c0.3-0.1,0.6-0.3,0.9-0.5c4.3-2.2,8.6-4.4,13-6.5
	c0.7-0.3,1.3-0.6,2-1c3.9-1.8,7.9-3.6,11.9-5.1c2.9-1.1,5.8-2.1,8.7-2.9c0.7-0.2,1.4-0.4,2.1-0.6c5.3-1.5,10.7-2.6,16.1-3.6
	c4-0.7,8.1-1.4,12.1-2.1c1.7-0.3,3.3-0.6,5-0.9c0,0,0,0,0.1,0c0.4-0.1,0.7-0.1,1.1-0.2c0,0,0.1,0,0.1,0c1.6-0.3,3.2-0.6,4.8-0.8
	c0.4-0.1,0.7-0.1,1.1-0.2c2.5-0.4,5.1-0.7,7.6-0.9c2.2-0.2,4.4-0.4,6.6-0.5c0,0,0.1,0,0.1,0c0.3,0,0.6,0,0.9,0l0,0
	c14-0.7,28.1,0.7,41.7,4.1c0.6,0.2,1.3,0.3,1.9,0.5c9.9,2.7,19.5,6.3,28.7,10.7c1.2,0.6,2.3,1.2,3.4,1.9c1.2,0.8,2.4,1.6,3.6,2.5
	c0.9,0.7,1.7,1.4,2.5,2.1c0.7,0.6,1.3,1.2,2,1.8C404.8,366.2,412,375.4,418,382z"/>
<path class="st9" d="M194.9,351.4c-0.4-0.5-1-0.8-1.5-1.1c0,0,0,0,0-0.1c0.2-0.6,0.4-1.2,0.6-1.8c0.2-0.7,0.5-1.4,0.7-2.1
	c0.1-0.4,0.3-0.7,0.4-1.1c0.1-0.2,0.2-0.4,0.3-0.5c0.1-0.2,0.2-0.4,0.3-0.5l0.6,0.5c-0.1,0.3-0.2,0.6-0.3,0.9
	c-0.1,0.3-0.1,0.7-0.2,1c-0.1,0.7-0.2,1.4-0.3,2.2s-0.2,1.5-0.4,2.3C194.9,351.2,194.9,351.3,194.9,351.4z"/>
<path class="st10" d="M203.5,339.2c-1.3-0.1-2.6-0.5-3.7-1.1c0.9,2.7,3.4,3.9,5.5,4.6c-2.1,1.1-4.6,2.2-6.1,0.5
	c1.6,2.9,3.8,6.3,7.2,6.6c-3.1,0.5-10.2,0.5-11.2-3.4c-2.6,2.1-6.7-1.2-7.6-4.5c2.3,1,5,1.5,6.8-0.7c-2-0.1-2.6-1.2-3.7-3.5
	c1.5,0.6,4.2,1.1,5.9-0.9c-1.4-0.4-2.2-0.2-3-1.6c2.6-0.3,5.8-2.9,7.1-6C200.4,329.2,201.3,337.2,203.5,339.2z"/>
<path class="st9" d="M178.9,350.2c0-0.5-0.1-1-0.2-1.6c-0.1-0.7-0.2-1.5-0.2-2.2c0-0.4-0.1-0.7-0.1-1.1c0-0.3,0-0.7,0-1l-0.7-0.3
	c-0.1,0.2-0.1,0.4-0.2,0.6c0,0.2-0.1,0.4-0.1,0.6c-0.1,0.4-0.1,0.8-0.1,1.2c-0.1,0.8-0.1,1.5-0.1,2.3c0,0.6-0.1,1.1-0.1,1.6
	C177.8,350.3,178.4,350.2,178.9,350.2z"/>
<path class="st10" d="M184,336.6c-1.2,0.4-2.5,0.5-3.8,0.3c1.6,2.3,4.2,2.5,6.4,2.4c-1.7,1.8-3.8,3.7-5.7,2.6
	c2.2,2.2,5.3,4.6,8.6,3.7c-2.8,1.5-9.6,4.1-11.5,0.7c-1.9,2.9-6.7,1.2-8.4-1.7c2.4,0.1,5.1-0.3,6.3-3.1c-2,0.6-2.8-0.2-4.5-2.1
	c1.6,0,4.2-0.4,5.4-2.9c-1.4,0.1-2.1,0.6-3.3-0.4c2.4-1.2,4.8-4.8,5.2-8.2C178.4,328.2,181.4,335.4,184,336.6z"/>
<path class="st9" d="M156.2,330.9c-0.6-0.3-1.1-0.5-1.8-0.5c0,0,0,0-0.1,0c0-0.6,0.1-1.2,0.1-1.9c0-0.8,0.1-1.5,0.1-2.3
	c0-0.4,0.1-0.8,0.1-1.2c0-0.2,0.1-0.4,0.1-0.6c0-0.2,0.1-0.4,0.2-0.6l0.7,0.3c-0.1,0.3-0.1,0.7,0,1c0,0.4,0,0.7,0.1,1.1
	c0.1,0.7,0.2,1.5,0.2,2.2c0.1,0.8,0.2,1.5,0.2,2.3C156.1,330.7,156.2,330.8,156.2,330.9z"/>
<path class="st10" d="M161.2,316.3c-1.2,0.4-2.5,0.5-3.8,0.3c1.6,2.3,4.2,2.5,6.4,2.4c-1.7,1.8-3.8,3.7-5.7,2.6
	c2.2,2.2,5.3,4.6,8.6,3.7c-2.8,1.5-9.6,4.1-11.5,0.7c-1.9,2.9-6.7,1.2-8.4-1.7c2.4,0.1,5.1-0.3,6.3-3.1c-2,0.6-2.8-0.2-4.5-2.1
	c1.6,0,4.2-0.4,5.4-2.9c-1.4,0.1-2.1,0.6-3.3-0.4c2.4-1.2,4.8-4.8,5.2-8.2C155.5,307.9,158.5,315.1,161.2,316.3z"/>
<path class="st9" d="M120.8,316.2c0.1,0,0.2,0,0.2,0.1c-0.1-0.6-0.1-1.2-0.2-1.7c-0.1-0.7-0.2-1.5-0.2-2.2c0-0.4-0.1-0.7-0.1-1.1
	c0-0.3,0-0.7,0-1l-0.7-0.3c-0.1,0.2-0.1,0.4-0.2,0.6c0,0.2-0.1,0.4-0.1,0.6c-0.1,0.4-0.1,0.8-0.1,1.2c-0.1,0.8-0.1,1.5-0.1,2.3
	c0,0.5,0,0.9-0.1,1.4C119.8,316,120.3,316.1,120.8,316.2z"/>
<path class="st10" d="M126.1,302.4c-1.2,0.4-2.5,0.5-3.8,0.3c1.6,2.3,4.2,2.5,6.4,2.4c-1.7,1.8-3.8,3.7-5.7,2.6
	c2.2,2.2,5.3,4.6,8.6,3.7c-2.8,1.5-9.6,4.1-11.5,0.7c-1.9,2.9-6.7,1.2-8.4-1.7c2.4,0.1,5.1-0.3,6.3-3.1c-2,0.6-2.8-0.2-4.5-2.1
	c1.6,0,4.2-0.4,5.4-2.9c-1.4,0.1-2.1,0.6-3.3-0.4c2.4-1.2,4.8-4.8,5.2-8.2C120.5,294,123.5,301.2,126.1,302.4z"/>
<path class="st9" d="M98,356.7c-0.5-0.6-1.1-1.1-1.7-1.5c0,0,0,0,0-0.1c0.3-0.6,0.6-1.3,0.8-2c0.3-0.8,0.6-1.6,1-2.4
	c0.2-0.4,0.4-0.8,0.6-1.2c0.1-0.2,0.2-0.4,0.3-0.6c0.1-0.2,0.3-0.4,0.4-0.6l0.6,0.6c-0.2,0.3-0.3,0.7-0.4,1.1
	c-0.1,0.4-0.2,0.8-0.3,1.2c-0.2,0.8-0.4,1.7-0.6,2.5s-0.4,1.7-0.6,2.6C98,356.4,98,356.6,98,356.7z"/>
<path class="st10" d="M109,343.3c-1.5-0.2-3-0.8-4.3-1.6c0.8,3.3,3.6,4.8,6,5.9c-2.5,1.1-5.5,2.1-7.1,0c1.6,3.5,4,7.7,8,8.4
	c-3.7,0.2-12-0.4-12.8-5.1c-3.1,2.2-7.8-2.1-8.5-6.1c2.6,1.4,5.7,2.3,8-0.2c-2.4-0.4-3-1.6-4.1-4.5c1.7,0.8,4.8,1.7,7-0.4
	c-1.6-0.6-2.6-0.4-3.4-2.1c3.1-0.1,7-2.8,8.7-6.3C106.1,331.3,106.6,340.7,109,343.3z"/>
<path class="st9" d="M81.8,322.1c0.1,0.4,0.2,0.8,0.3,1.1c0.2,0.7,0.4,1.4,0.7,2.2c0,0.1,0.1,0.2,0.1,0.3c0.1,0,0.2-0.1,0.2-0.1
	c0.4-0.2,0.8-0.4,1.1-0.6c0-0.1-0.1-0.2-0.2-0.3c-0.3-0.6-0.7-1.3-1-1.9c-0.2-0.3-0.3-0.6-0.4-1c-0.1-0.3-0.2-0.6-0.3-0.9l-0.7,0
	c0,0.2,0,0.4,0.1,0.6C81.8,321.7,81.8,321.9,81.8,322.1z"/>
<path class="st10" d="M84.9,311.1c-1,0.9-2.2,1.6-3.4,2c2.2,1.4,4.7,0.4,6.7-0.6c-0.9,2.4-2.3,5.1-4.3,5c2.8,1,6.5,1.9,9.2-0.5
	c-2.1,2.7-7.5,8.1-10.4,5.8c-0.8,3.5-5.8,4.2-8.3,2.3c2.3-1,4.6-2.6,4.7-5.6c-1.6,1.4-2.7,1.1-4.8,0.1c1.5-0.7,3.8-2.3,4-5.1
	c-1.2,0.7-1.8,1.5-3.2,1.1c1.8-2.2,2.8-6.5,2-9.9C76.8,305.9,82,311.2,84.9,311.1z"/>
<path class="st8" d="M145.2,382.6l-125.7-0.4c4.3-3.7,13.7-4.8,15.7-6.5c1-0.9,2.2-1.8,3.3-2.7c4.6-3.6,9.9-7.4,15-10.6
	c2.8-1.8,5.5-3.4,7.9-4.6c0.7-0.4,1.5-0.7,2.2-1c7.6-3.3,16.2-4.4,24.3-3.9c1.8,0.1,3.5,0.3,5.2,0.5c2.2,0.3,4.4,0.7,6.6,1.3
	c1.1,0.3,2.2,0.6,3.4,0.9l0,0c0.4,0.1,0.9,0.3,1.3,0.4c7.9,2.5,15.4,6,22.3,10.5c1.3,0.9,2.7,1.8,3.9,2.7c0.3,0.2,0.6,0.5,0.9,0.7
	l0,0C136.6,373.7,141.1,377.9,145.2,382.6z"/>
<path class="st10" d="M130.8,370.3c-0.6-0.3-1.3-0.5-2.1-0.6c0,0,0,0-0.1,0c0.1-0.7,0.1-1.5,0.1-2.2c0-0.9,0.1-1.8,0.1-2.7
	c0-0.5,0.1-0.9,0.1-1.4c0-0.2,0.1-0.5,0.1-0.7c0-0.2,0.1-0.5,0.2-0.7l0.8,0.3c-0.1,0.4-0.1,0.8,0,1.2c0,0.4,0,0.8,0.1,1.3
	c0.1,0.9,0.2,1.7,0.3,2.6s0.2,1.8,0.3,2.7C130.7,370,130.8,370.1,130.8,370.3z"/>
<path class="st10" d="M136.6,353.1c-1.5,0.4-3,0.5-4.5,0.3c1.8,2.7,5,2.9,7.5,2.9c-2,2.1-4.5,4.3-6.6,3.1c2.6,2.6,6.2,5.4,10.1,4.4
	c-3.3,1.8-11.3,4.8-13.5,0.8c-2.2,3.4-7.9,1.4-9.9-1.9c2.8,0.2,6-0.4,7.3-3.6c-2.3,0.7-3.3-0.3-5.2-2.4c1.8,0,5-0.4,6.3-3.4
	c-1.6,0.1-2.5,0.7-3.9-0.5c2.9-1.4,5.6-5.6,6.1-9.6C130,343.2,133.6,351.7,136.6,353.1z"/>
<path class="st11" d="M235.9,357.9l-1.3-12.9c-0.1,0-0.2,0-0.3,0c-0.1-0.1-0.2-0.2-0.3-0.3c-0.1,0.4-0.2,0.7-0.3,1
	c-0.1,0.4-0.3,0.9-0.5,1.3l0.5,12.1C234.3,358.7,235.1,358.3,235.9,357.9z"/>
<path class="st12" d="M242.3,337.7c1.6-2.2,0.2-5.4-2.2-3.7c1.8-3.7-2.9-2.6-4.2-0.9c-0.5-4.9-4-3.2-4.6,0.5l-0.4-0.1
	c0.6-2.6-3-1.6-1.9,0.7c-2.8-3.6-5.8,3.4-3.1,3.8c-1.9,1.2-2.3,5.6,0.6,4.5c-2.7,2.6,0.9,7,2.2,3.8c-0.1,3.2,4.3,4.9,4.1,0.3
	c1.3,1.4,6,3.2,5.3-1.1c1.8,2.2,5.6-1,3.5-2.9C244.1,342.7,245.2,338.3,242.3,337.7z"/>
<path class="st11" d="M257.2,351l1.7-11.9c-0.1,0-0.2-0.1-0.3-0.1c-0.1-0.1-0.2-0.3-0.2-0.4c-0.2,0.3-0.4,0.6-0.5,0.9
	c-0.2,0.4-0.5,0.7-0.8,1.1l-2.2,10.8C255.5,351.2,256.3,351.1,257.2,351z"/>
<path class="st12" d="M268,334.5c2.1-1.6,1.5-5.2-1.2-4.3c2.6-3-2.2-3.4-3.8-2.2c0.7-4.8-3.1-4.3-4.6-0.9l-0.4-0.3
	c1.2-2.3-2.5-2.5-2.1,0.1c-1.8-4.3-6.4,1.4-3.9,2.7c-2.1,0.5-3.5,4.6-0.5,4.5c-3.2,1.7-0.8,7,1.3,4.4c-0.9,3,3,6.1,3.9,1.6
	c0.9,1.8,5,4.9,5.4,0.6c1.3,2.7,5.6,0.8,4.1-1.7C268.6,339.9,270.7,336,268,334.5z"/>
<path class="st11" d="M298.7,344.3l-0.4-8c-0.1,0-0.2,0-0.3-0.1c-0.1-0.1-0.2-0.2-0.3-0.3c-0.1,0.4-0.2,0.7-0.4,1
	c-0.2,0.4-0.4,0.9-0.6,1.3l-0.1,6.4C297.4,344.4,298.1,344.4,298.7,344.3z"/>
<path class="st13" d="M306.4,329.5c1.7-2.1,0.5-5.4-2-3.9c2-3.6-2.8-2.8-4.1-1.2c-0.3-4.9-3.9-3.4-4.6,0.2l-0.4-0.2
	c0.7-2.5-2.9-1.8-2,0.6c-2.6-3.8-6,3-3.3,3.6c-1.9,1-2.6,5.4,0.3,4.5c-2.8,2.4,0.6,7.1,2.1,3.9c-0.3,3.2,4.1,5.2,4.1,0.6
	c1.3,1.5,5.8,3.6,5.4-0.7c1.7,2.3,5.6-0.6,3.6-2.7C308,334.6,309.3,330.3,306.4,329.5z"/>
<path class="st11" d="M354.1,348.4l1.5-13c0.3-0.4,0.5-0.8,0.7-1.2c0.2-0.3,0.3-0.6,0.5-1c0.1,0.1,0.2,0.3,0.3,0.4
	c0.1,0.1,0.2,0.1,0.3,0.1l-0.9,15.1C355.8,348.7,355,348.5,354.1,348.4z"/>
<path class="st13" d="M366.1,328.1c1.9-1.8,1.1-5.3-1.6-4.1c2.4-3.3-2.5-3.1-4-1.8c0.2-4.9-3.5-4-4.6-0.4l-0.4-0.2
	c1-2.4-2.7-2.2-2,0.3c-2.2-4.1-6.2,2.1-3.6,3.1c-2,0.8-3.1,5-0.1,4.5c-3,2-0.2,7.1,1.6,4.2c-0.6,3.1,3.5,5.7,4,1.2
	c1.1,1.7,5.4,4.3,5.4,0c1.5,2.5,5.6,0.1,3.9-2.2C367.1,333.4,368.9,329.3,366.1,328.1z"/>
<path class="st11" d="M394.7,363.5l1.2-13c0.3-0.4,0.5-0.8,0.7-1.2c0.1-0.3,0.3-0.6,0.4-1c0.1,0.1,0.2,0.3,0.3,0.4
	c0.1,0.1,0.2,0.1,0.3,0.1l-0.5,15.2C396.4,363.7,395.6,363.6,394.7,363.5z"/>
<path class="st12" d="M406.3,342.9c1.9-1.9,0.9-5.3-1.7-4.1c2.3-3.3-2.6-3.1-4-1.6c0.1-4.9-3.6-3.9-4.6-0.3l-0.4-0.2
	c0.9-2.4-2.7-2.1-2,0.4c-2.3-4-6.2,2.3-3.5,3.2c-2,0.8-3,5.1,0,4.5c-3,2.1,0,7.1,1.7,4.1c-0.6,3.1,3.6,5.6,4,1.1
	c1.1,1.7,5.5,4.2,5.4-0.1c1.5,2.5,5.6,0,3.9-2.3C407.4,348.1,409.1,344,406.3,342.9z"/>
<path class="st14" d="M147.2,170.1c0-0.2-0.1-0.3-0.3-0.3c0,0-0.1,0-0.1,0c-35.8,13.7-37.2,14-36.1,14.4l36.1,14
	C147.3,198.4,147.1,199.5,147.2,170.1z M146.5,170.5l0,26.9l-34.9-13.5L146.5,170.5z"/>
<path class="st15" d="M146.8,204.2c0.9,0,0.6,2.1,0.6-40.3c0-0.3-0.3-0.6-0.6-0.6c-0.3,0-0.6,0.3-0.6,0.6
	C146.2,206.4,145.9,204.2,146.8,204.2z"/>
<polygon class="st16" points="55.4,161.1 46.8,167.7 45.2,167.5 54.6,160.3 "/>
<polygon class="st17" points="62,185.1 59.3,191.7 56.5,190.9 56,183.6 "/>
<path class="st18" d="M58.5,189.3c2.2,0.4,3.6,2.6,3.2,4.8c-0.4,2.2-2.6,3.6-4.8,3.2c-2.2-0.4-3.6-2.6-3.2-4.8c0,0,0,0,0,0
	C54.1,190.3,56.3,188.9,58.5,189.3z"/>
<path class="st17" d="M58.1,190.9c1.3,0.3,2.1,1.5,1.9,2.8s-1.5,2.1-2.8,1.9s-2.1-1.5-1.9-2.8c0,0,0,0,0,0
	C55.6,191.5,56.8,190.6,58.1,190.9z"/>
<path class="st19" d="M58.7,193.5c-0.1,0.6-0.7,1-1.3,0.8c-0.6-0.1-1-0.7-0.8-1.3s0.7-1,1.3-0.8C58.5,192.3,58.8,192.9,58.7,193.5
	L58.7,193.5z"/>
<polygon class="st17" points="107.8,191.4 108.1,195.8 107.1,196 106,191.2 "/>
<path class="st20" d="M30.5,174.6c-3.4,20.7-2.7,20.9,3,0.7l-1.4-0.8h0L30.5,174.6z"/>
<path class="st21" d="M41,166.9l14.8,2.1c-0.2,4.2,4.1,6,9.6,6.3c4.2,0.2,4.7-2,4.6-4.3l34.8,9c6.7-10.1,16.1-9.5,13.2,3.2
	c-1,4.2-3.3,5.8-10.3,8.2c-36.3-2.7-20.3-0.7-70.3-9.2l-4.1-4.2l2-8.9L41,166.9z"/>
<path class="st22" d="M36.1,168.8l3.6,3.8c53.8,9.2,40.7,7.4,64,9.2l1.2-1.9c6.7-10,16-9.4,13.2,3.3c-1,4.2-3.3,5.8-10.3,8.2
	c-36.3-2.7-20.3-0.7-70.3-9.2l-4.1-4.2l2-8.9L36.1,168.8z"/>
<path class="st20" d="M115.7,187.5c-1.6,1.5-4,2.6-7.9,3.9c-36.3-2.7-20.3-0.7-70.3-9.2l-4.1-4.2l1.1-4.8l4.1,4.3
	C93.6,186.7,77.3,184.6,115.7,187.5z"/>
<path class="st20" d="M33.8,176.7c-1-0.5-2-1.1-2.9-1.7c-2.8-2.2-2.5-3.5,1-4.3c1.1-0.2,2.3-0.3,3.4-0.3
	C34.2,174.6,34.5,173.2,33.8,176.7z"/>
<path class="st21" d="M31.3,170.8c5.6-20.2,6.4-20.1,3,0.7l-1.6,0.1h0L31.3,170.8z"/>
<polygon class="st21" points="35.5,169 41,166.9 37.6,182.2 33.5,178 "/>
<polygon class="st20" points="38.6,177.4 37.6,182.2 33.5,178 34.6,173.1 "/>
<path class="st21" d="M34.5,173.3l-5.5-1.1c0.5-1.5,4.5-1.9,6.2-1.9C34.8,172.2,34.9,171.5,34.5,173.3z"/>
<path class="st21" d="M55.8,169c1-1.4,2.1-2.3,3.1-2.4l-1.4,6.3C56.3,172,55.7,170.5,55.8,169z"/>
<path class="st22" d="M80.2,160.3c-9.9-1.4-19.9-2.8-29.8-4.2c-1.6-0.2-1.9,0.5-1.6,1.2c1.7,4.3,2.2,6,3.5,6.1
	c8,1.1,16.1,2.3,24.1,3.4c0.8,0,1.6-0.4,2.1-1.1l3-3.8C81.8,161.3,81.8,160.6,80.2,160.3z"/>
<path class="st20" d="M104.7,183.6c15.7,0.6,10.8,0,21.7,2.7l-19.2-0.9L104.7,183.6z"/>
<path class="st18" d="M107.8,194.9c1.3,0,2.4,1.1,2.4,2.5c0,1.3-1.1,2.4-2.5,2.4c-1.3,0-2.4-1.1-2.4-2.5c0,0,0,0,0,0
	C105.4,196,106.5,194.9,107.8,194.9z"/>
<path class="st17" d="M107.8,196c0.7,0,1.3,0.6,1.3,1.4c0,0.7-0.6,1.3-1.4,1.3s-1.3-0.6-1.3-1.4c0,0,0,0,0,0
	C106.4,196.6,107,196,107.8,196z"/>
<polygon class="st16" points="55.8,160.4 50.4,184.4 49.3,184.2 54.6,160.3 "/>
<polygon class="st16" points="75.3,163.2 69.8,187.7 68.6,187.5 74.1,163 "/>
<path class="st23" d="M374.8,265H143.5c-1,0-1.9-0.8-1.9-1.9V97.9c0-1,0.8-1.9,1.9-1.9h231.3c1,0,1.9,0.8,1.9,1.9v165.2
	C376.7,264.1,375.9,265,374.8,265z"/>
<path class="st24" d="M147.5,265c-3.2,0-5.8-2.6-5.8-5.8V101.8c0-3.2,2.6-5.8,5.8-5.8h223.4c3.2,0,5.8,2.6,5.8,5.8v153.1"/>
<rect x="153" y="109.3" class="st25" width="211" height="137.1"/>
<path class="st26" d="M372.6,274.3H143.1c-5.5,0-10.2-4-11.1-9.4l-1.6-10h106.4l4.1,5.8h29.4l4.4-5.8h112l-1.4,8.7
	C384.2,269.8,378.9,274.3,372.6,274.3z"/>
<rect x="196.9" y="118.6" class="st27" width="155.9" height="7.1"/>
<rect x="299.4" y="181.2" class="st28" width="61.3" height="7.1"/>
<rect x="196.9" y="197.2" class="st29" width="111.7" height="7.1"/>
<rect x="196.9" y="212.9" class="st30" width="63.9" height="7.1"/>
<rect x="260.4" y="212.9" class="st31" width="63.9" height="7.1"/>
<rect x="196.9" y="228.6" class="st32" width="56.1" height="7.1"/>
<rect x="162.4" y="118.3" class="st33" width="28.9" height="7.1"/>
<rect x="162.4" y="134" class="st33" width="28.9" height="7.1"/>
<rect x="162.4" y="149.8" class="st33" width="28.9" height="7.1"/>
<rect x="162.4" y="165.5" class="st33" width="28.9" height="7.1"/>
<rect x="162.4" y="181.2" class="st33" width="28.9" height="7.1"/>
<rect x="162.4" y="196.9" class="st33" width="28.9" height="7.1"/>
<rect x="162.4" y="212.7" class="st33" width="28.9" height="7.1"/>
<rect x="162.4" y="228.4" class="st33" width="28.9" height="7.1"/>
<polyline class="st34" points="273.4,137.9 289.4,137.9 289.4,144.2 248.2,144.2 248.2,152.8 256.8,152.8 "/>
<rect x="196.9" y="134" class="st32" width="81.2" height="7.1"/>
<polyline class="st35" points="279.7,154.5 290.5,154.5 290.5,160.2 279.1,160.2 279.1,168.8 294.3,168.8 "/>
<line class="st36" x1="238.7" y1="109.3" x2="238.7" y2="247"/>
<polyline class="st37" points="295.3,168.6 312.6,168.6 312.6,175.4 290.4,175.4 290.4,185.7 312.8,185.7 "/>
<rect x="253.1" y="149.8" class="st38" width="31.4" height="7.1"/>
<rect x="292.9" y="165.6" transform="matrix(0.7071 -0.7071 0.7071 0.7071 -32.6541 258.8026)" class="st39" width="6.3" height="6.5"/>
<g>
	<path class="st40" d="M211.8,70.2h0.4c2.3-8,10.7-12.7,18.7-10.3c1.4,0.4,2.7,1,4,1.8c1.7-11.3,12.3-19.1,23.7-17.3
		c7.8,1.2,14.3,6.8,16.6,14.3c7.6-2.1,15.4,2.4,17.4,9.9c0.1,0.5,0.3,1.1,0.3,1.6h2.3c5.9,0,10.6,4.8,10.6,10.6v0.8
		c0,5.9-4.8,10.6-10.6,10.6h-83.5c-5.9,0-10.6-4.8-10.6-10.6v-0.8C201.1,75,205.9,70.3,211.8,70.2z"/>
	<path class="st40" d="M280.4,92.3h14.9c5.9,0,10.6-4.8,10.6-10.6v-0.8c0-5.9-4.8-10.6-10.6-10.6H293c-1.2-7.7-8.4-13-16.2-11.9
		c-0.5,0.1-1.1,0.2-1.6,0.3c-3.4-10.9-15-17.1-26-13.7c-7.6,2.3-13.1,8.8-14.3,16.6c-7-4.5-16.4-2.5-20.9,4.5
		c-0.8,1.2-1.4,2.6-1.8,4h-0.4c-5.9,0-10.6,4.8-10.6,10.6v0.8c0,5.9,4.8,10.6,10.6,10.6H280.4L280.4,92.3z"/>
	<path class="st3" d="M254.6,44.3c0,0-12.6,26.2-1.3,48l-23,0C230.3,92.4,227.5,45.8,254.6,44.3z"/>
	<path class="st5" d="M211.8,70.2h0.4c2.3-8,10.7-12.7,18.7-10.3c1.4,0.4,2.7,1,4,1.8c1.7-11.3,12.3-19.1,23.7-17.3
		c7.8,1.2,14.3,6.8,16.6,14.3c7.6-2.1,15.4,2.4,17.4,9.9c0.1,0.5,0.3,1.1,0.3,1.6h2.3c5.9,0,10.6,4.8,10.6,10.6v0.8
		c0,5.9-4.8,10.6-10.6,10.6h-83.5c-5.9,0-10.6-4.8-10.6-10.6v-0.8C201.1,75,205.9,70.3,211.8,70.2z"/>
	<path class="st4" d="M234.9,61.7c0,0-14.2-9.7-22.7,8.5c0,0-11.2,0.6-11.1,10.6c0.1,10,9.3,11.4,9.3,11.4l20.1-0.1
		C230.5,92.2,229.3,73.4,234.9,61.7z"/>
	<path class="st5" d="M280.4,92.3h14.9c5.9,0,10.6-4.8,10.6-10.6v-0.8c0-5.9-4.8-10.6-10.6-10.6H293c-1.2-7.7-8.4-13-16.2-11.9
		c-0.5,0.1-1.1,0.2-1.6,0.3c-3.4-10.9-15-17.1-26-13.7c-7.6,2.3-13.1,8.8-14.3,16.6c-7-4.5-16.4-2.5-20.9,4.5
		c-0.8,1.2-1.4,2.6-1.8,4h-0.4c-5.9,0-10.6,4.8-10.6,10.6v0.8c0,5.9,4.8,10.6,10.6,10.6H280.4L280.4,92.3z"/>
</g>
</svg>
