<?xml version="1.0" encoding="utf-8"?>
<!-- Generator: Adobe Illustrator 23.0.2, SVG Export Plug-In . SVG Version: 6.00 Build 0)  -->
<svg version="1.1" id="Layer_1" xmlns="http://www.w3.org/2000/svg" xmlns:xlink="http://www.w3.org/1999/xlink" x="0px" y="0px"
	 viewBox="0 0 330 240" style="enable-background:new 0 0 330 240;" xml:space="preserve">
<style type="text/css">
	.st0{display:none;}
	.st1{display:inline;}
	.st2{fill:none;stroke:#30426B;stroke-linejoin:round;}
	.st3{fill:#A3EDBA;stroke:#30426B;stroke-linejoin:round;}
	.st4{fill:#EDFBF1;stroke:#30426B;stroke-linejoin:round;}
	.st5{fill:none;stroke:#30426B;stroke-linecap:round;stroke-linejoin:round;}
	.st6{fill:#BCBEC0;}
	.st7{fill:#FFFFFF;stroke:#30426B;stroke-linejoin:round;}
	.st8{fill:#CCCFF6;stroke:#30426B;stroke-linejoin:round;}
	.st9{fill:#939598;}
	.st10{fill:#F1F2F2;stroke:#30426B;stroke-linejoin:round;}
	.st11{fill:#30426B;stroke:#30426B;stroke-linejoin:round;}
	.st12{fill:none;stroke:#A3EDBA;stroke-linecap:round;stroke-linejoin:round;}
	.st13{fill:none;}
	.st14{fill:none;stroke:#30426B;stroke-width:3;stroke-linecap:round;stroke-linejoin:round;}
	.st15{fill:none;stroke:#30426B;stroke-linejoin:round;stroke-dasharray:2.1,2.1;}
	.st16{fill:none;stroke:#30426B;stroke-linejoin:round;stroke-dasharray:2.4,2.4;}
	.st17{fill:none;stroke:#30426B;stroke-linejoin:round;stroke-dasharray:2.34,2.34;}
	.st18{fill:none;stroke:#30426B;stroke-linejoin:round;stroke-dasharray:2.42,2.42;}
	.st19{fill:none;stroke:#30426B;stroke-linejoin:round;stroke-dasharray:2.38,2.38;}
	.st20{fill:none;stroke:#30426B;stroke-linejoin:round;stroke-dasharray:2.19,2.19;}
	.st21{fill:none;stroke:#30426B;stroke-linejoin:round;stroke-dasharray:2.11,2.11;}
	.st22{fill:none;stroke:#30426B;stroke-linejoin:round;stroke-dasharray:2.41,2.41;}
	.st23{fill:none;stroke:#30426B;stroke-linejoin:round;stroke-dasharray:2.36,2.36;}
	.st24{fill:none;stroke:#30426B;stroke-linejoin:round;stroke-dasharray:2.56,2.56;}
	.st25{fill:#E6E7E8;stroke:#30426B;stroke-linejoin:round;}
	.st26{fill:none;stroke:#BCBEC0;stroke-linecap:round;stroke-linejoin:round;}
</style>
<title>Addons icon</title>
<g class="st0">
	<g class="st1">
		<g id="Main">
			<g id="Addons_Icon">
				<rect x="202.4" y="197.5" class="st2" width="19.4" height="19.4"/>
				<path class="st3" d="M202.9,191.6h18.5c1.4,0,2.5,1.1,2.5,2.5v0.8c0,1.4-1.1,2.5-2.5,2.5h-18.5c-1.4,0-2.5-1.1-2.5-2.5v-0.8
					C200.3,192.8,201.5,191.6,202.9,191.6z"/>
				<path class="st2" d="M189.2,223.2h45.8c1.4,0,2.5,1.1,2.5,2.5v10.6c0,1.4-1.1,2.5-2.5,2.5h-45.8c-1.4,0-2.5-1.1-2.5-2.5v-10.6
					C186.8,224.3,187.8,223.2,189.2,223.2z"/>
				<path class="st3" d="M207.4,76.7h20.5c1.4,0,2.5,1.1,2.5,2.5v20.7c0,1.4-1.1,2.5-2.5,2.5h-38.7c-1.4,0-2.5-1.1-2.5-2.5v-2.5
					C186.8,85.9,196,76.7,207.4,76.7L207.4,76.7z"/>
				<path class="st4" d="M230.4,96.4V78.5c0-1-0.8-1.8-1.8-1.9H202c-8.4,0-15.3,6.8-15.3,15.3v4.5"/>
				<path class="st3" d="M199.6,216.8h25c3.5,0,6.3,2.8,6.3,6.3l0,0l0,0l0,0h-37.6l0,0l0,0C193.3,219.7,196.1,216.8,199.6,216.8
					L199.6,216.8L199.6,216.8z"/>
				<path class="st3" d="M202.9,147h18.5c1.4,0,2.5,1.1,2.5,2.5v0.8c0,1.4-1.1,2.5-2.5,2.5h-18.5c-1.4,0-2.5-1.1-2.5-2.5v-0.7
					C200.3,148.2,201.5,147,202.9,147z"/>
				<path class="st3" d="M202.9,102.4h18.5c1.4,0,2.5,1.1,2.5,2.5v0.8c0,1.4-1.1,2.5-2.5,2.5h-18.5c-1.4,0-2.5-1.1-2.5-2.5v-0.8
					C200.3,103.6,201.5,102.4,202.9,102.4z"/>
				<path class="st2" d="M68.6,65h257.7c1.4,0,2.5,1.1,2.5,2.5v0.8c0,1.4-1.1,2.5-2.5,2.5H68.6c-1.4,0-2.5-1.1-2.5-2.5v-0.8
					C66,66.1,67.2,65,68.6,65z"/>
				<rect x="202" y="70.8" class="st2" width="20.1" height="5.8"/>
				<path class="st2" d="M96.3,70.8h13.9l0,0v4.8c0,1.4-1.1,2.5-2.5,2.5l0,0h-8.8c-1.4,0-2.5-1.1-2.5-2.5L96.3,70.8L96.3,70.8z"/>
				<line class="st2" x1="202.4" y1="197.5" x2="221.8" y2="216.8"/>
				<line class="st2" x1="202.4" y1="216.8" x2="221.8" y2="197.5"/>
				<polyline class="st2" points="202.4,172.3 202.4,191.6 221.8,191.6 221.8,172.3 				"/>
				<line class="st2" x1="202.4" y1="172.3" x2="221.8" y2="191.6"/>
				<line class="st2" x1="202.4" y1="191.6" x2="221.8" y2="172.3"/>
				<polyline class="st2" points="221.8,172.3 221.8,152.9 202.4,152.9 202.4,172.3 				"/>
				<line class="st2" x1="202.4" y1="152.9" x2="221.8" y2="172.3"/>
				<line class="st2" x1="202.4" y1="172.3" x2="221.8" y2="152.9"/>
				<polyline class="st2" points="202.4,127.7 202.4,147 221.8,147 221.8,127.7 				"/>
				<line class="st2" x1="202.4" y1="127.7" x2="221.8" y2="147"/>
				<line class="st2" x1="202.4" y1="147" x2="221.8" y2="127.7"/>
				<polyline class="st2" points="221.8,127.7 221.8,108.3 202.4,108.3 202.4,127.7 				"/>
				<line class="st2" x1="202.4" y1="108.3" x2="221.8" y2="127.7"/>
				<line class="st2" x1="202.4" y1="127.7" x2="221.8" y2="108.3"/>
				<polyline class="st2" points="202.4,45.9 202.4,65 221.8,65 221.8,45.9 				"/>
				<line class="st2" x1="202.4" y1="45.9" x2="221.2" y2="64.7"/>
				<line class="st2" x1="203" y1="64.7" x2="221.8" y2="45.9"/>
				<polyline class="st2" points="86.4,65 96,55.3 105.7,65 				"/>
				<polyline class="st2" points="105.7,65 115.4,55.3 125.1,65 				"/>
				<polyline class="st2" points="125.1,65 134.8,55.3 144.5,65 				"/>
				<polyline class="st2" points="144.5,65 154.2,55.3 163.9,65 				"/>
				<polyline class="st2" points="163.9,65 173.6,55.3 183.3,65 				"/>
				<polyline class="st5" points="66.4,65.6 76.7,55.3 86.4,65 				"/>
				<line class="st2" x1="202.4" y1="26.5" x2="202.4" y2="45.9"/>
				<line class="st2" x1="202.4" y1="26.5" x2="221.8" y2="45.9"/>
				<line class="st2" x1="202.4" y1="45.9" x2="221.8" y2="26.5"/>
				<line class="st2" x1="202.4" y1="26.5" x2="212.1" y2="16.8"/>
				<polyline class="st2" points="202.4,26.5 202.4,7.1 221.8,26.5 221.8,45.9 				"/>
				<line class="st2" x1="103.2" y1="78.1" x2="103.2" y2="100.6"/>
				<line class="st2" x1="186.8" y1="96.4" x2="230.4" y2="96.4"/>
				<line class="st2" x1="173.6" y1="55.3" x2="76.7" y2="55.3"/>
				<line class="st2" x1="144.5" y1="65" x2="202.4" y2="7.1"/>
				<polyline class="st2" points="241,65 250.6,55.3 260.4,65 				"/>
				<polyline class="st2" points="260.4,65 270,55.3 279.8,65 				"/>
				<polyline class="st2" points="279.8,65 289.4,55.3 289.4,65 				"/>
				<line class="st2" x1="289.4" y1="55.3" x2="250.6" y2="55.3"/>
				<line class="st2" x1="260.4" y1="65" x2="270" y2="55.3"/>
				<line class="st2" x1="202.4" y1="7.1" x2="76.7" y2="55.3"/>
				<rect x="289.4" y="48.2" class="st3" width="28.5" height="16.8"/>
				<rect x="289.4" y="70.8" class="st3" width="28.5" height="8.4"/>
				<rect x="289.4" y="70.8" class="st6" width="28.5" height="8.4"/>
				<line class="st2" x1="202.4" y1="7.1" x2="289.4" y2="55.3"/>
				<path class="st7" d="M1.1,228.2h204.2l0,0v2.9c0,4.3-3.5,7.8-7.8,7.8H8.9c-4.3,0-7.8-3.5-7.8-7.8V228.2L1.1,228.2z"/>
				<path class="st7" d="M78.6,228.2h49.1l0,0l0,0c0,1.9-1.6,3.5-3.5,3.5h-42C80.2,231.8,78.6,230.2,78.6,228.2
					C78.6,228.3,78.6,228.2,78.6,228.2L78.6,228.2L78.6,228.2z"/>
				<path class="st7" d="M34.9,120.7h136.6c7.4,0,13.4,6,13.4,13.4v94.1l0,0H21.5l0,0v-94.1C21.5,126.7,27.5,120.7,34.9,120.7z"/>
				<rect x="31.1" y="129.7" class="st8" width="144.2" height="89.5"/>
				<path class="st7" d="M56.2,100.3h94c2.5,0,4.5,2,4.5,4.5v84.4c0,2.5-2,4.5-4.5,4.5h-94c-2.5,0-4.5-2-4.5-4.5v-84.4
					C51.7,102.3,53.7,100.3,56.2,100.3z"/>
				<path class="st9" d="M150.3,129.7v66c0,1.4-1.1,2.5-2.5,2.5h-98c-1.4,0-2.5-1.1-2.5-2.5v-66"/>
				<path class="st7" d="M154.8,115.2v76.1c0,1.4-1.1,2.5-2.5,2.5h-98c-1.4,0-2.5-1.1-2.5-2.5v-76.1H154.8z"/>
				<circle class="st7" cx="60.1" cy="107.8" r="1.8"/>
				<circle class="st7" cx="67.1" cy="107.8" r="1.8"/>
				<path class="st10" d="M146.2,105.9H74c-1,0-1.9,0.8-1.9,1.8s0.8,1.9,1.8,1.9l0,0h72.2c1,0,1.8-0.8,1.8-1.9
					C148.1,106.7,147.2,105.9,146.2,105.9L146.2,105.9z"/>
				<path class="st2" d="M146.2,105.9H74c-1,0-1.9,0.8-1.9,1.8s0.8,1.9,1.8,1.9l0,0h72.2c1,0,1.8-0.8,1.8-1.9
					C148.1,106.7,147.2,105.9,146.2,105.9L146.2,105.9z"/>
				<line class="st5" x1="62.3" y1="121.3" x2="81.6" y2="121.3"/>
				<line class="st5" x1="67.9" y1="125.7" x2="74.9" y2="125.7"/>
				<line class="st5" x1="90.5" y1="125.7" x2="93.1" y2="125.7"/>
				<line class="st5" x1="79.3" y1="125.7" x2="86.1" y2="125.7"/>
				<line class="st5" x1="67.9" y1="130.1" x2="78" y2="130.1"/>
				<line class="st5" x1="82.4" y1="130.1" x2="91.8" y2="130.1"/>
				<line class="st5" x1="96.3" y1="130.1" x2="99.9" y2="130.1"/>
				<line class="st5" x1="67.9" y1="134.5" x2="72.9" y2="134.5"/>
				<line class="st5" x1="83.5" y1="134.5" x2="90.8" y2="134.5"/>
				<line class="st5" x1="77.4" y1="134.5" x2="79.1" y2="134.5"/>
				<line class="st5" x1="67.9" y1="139" x2="74.9" y2="139"/>
				<line class="st5" x1="79.3" y1="139" x2="83.8" y2="139"/>
				<line class="st5" x1="67.9" y1="143.4" x2="72" y2="143.4"/>
				<line class="st5" x1="76.4" y1="143.4" x2="83.8" y2="143.4"/>
				<line class="st5" x1="67.9" y1="147.8" x2="76.7" y2="147.8"/>
				<line class="st5" x1="81.1" y1="147.8" x2="97.4" y2="147.8"/>
				<line class="st5" x1="67.9" y1="152.3" x2="72.9" y2="152.3"/>
				<line class="st5" x1="77.4" y1="152.3" x2="87.7" y2="152.3"/>
				<line class="st5" x1="67.9" y1="156.7" x2="72.3" y2="156.7"/>
				<line class="st5" x1="76.7" y1="156.7" x2="85.7" y2="156.7"/>
				<line class="st5" x1="67.9" y1="161.1" x2="75.5" y2="161.1"/>
				<line class="st5" x1="80" y1="161.1" x2="94.7" y2="161.1"/>
			</g>
		</g>
	</g>
</g>
<g class="st0">
	<g class="st1">
		<g id="Main_1_">
			<g id="Frameworks_Icon">
				<rect x="53.4" y="49.3" class="st7" width="134.4" height="99.7"/>
				<path class="st7" d="M56.9,48.3"/>
				<circle class="st7" cx="62.3" cy="56.7" r="1.8"/>
				<circle class="st7" cx="69.2" cy="56.7" r="1.8"/>
				<path class="st10" d="M178.7,54.9H76.1c-1,0-1.8,0.8-1.8,1.8s0.8,1.8,1.8,1.8h102.6c1,0,1.8-0.8,1.8-1.8S179.7,54.9,178.7,54.9z
					"/>
				<path class="st2" d="M178.7,54.9H76.1c-1,0-1.8,0.8-1.8,1.8s0.8,1.8,1.8,1.8h102.6c1,0,1.8-0.8,1.8-1.8S179.7,54.9,178.7,54.9z"
					/>
				<line class="st2" x1="53.4" y1="64.1" x2="187.6" y2="64.1"/>
				<rect x="53.4" y="64.1" class="st11" width="134.4" height="84.8"/>
				<line class="st12" x1="65" y1="73.1" x2="84.2" y2="73.1"/>
				<line class="st12" x1="70.5" y1="77.5" x2="77.5" y2="77.5"/>
				<line class="st12" x1="93.1" y1="77.5" x2="101.7" y2="77.5"/>
				<line class="st12" x1="81.9" y1="77.5" x2="88.7" y2="77.5"/>
				<line class="st12" x1="70.5" y1="81.9" x2="80.6" y2="81.9"/>
				<line class="st12" x1="85" y1="81.9" x2="94.4" y2="81.9"/>
				<line class="st12" x1="98.8" y1="81.9" x2="110.6" y2="81.9"/>
				<line class="st12" x1="70.5" y1="86.3" x2="75.6" y2="86.3"/>
				<line class="st12" x1="94.1" y1="86.3" x2="101.4" y2="86.3"/>
				<line class="st12" x1="80" y1="86.3" x2="89.7" y2="86.3"/>
				<line class="st12" x1="70.5" y1="90.7" x2="85.5" y2="90.7"/>
				<line class="st12" x1="89.9" y1="90.7" x2="94.4" y2="90.7"/>
				<line class="st12" x1="70.5" y1="95.1" x2="74.7" y2="95.1"/>
				<line class="st12" x1="79.1" y1="95.1" x2="86.4" y2="95.1"/>
				<line class="st12" x1="70.5" y1="99.5" x2="79.3" y2="99.5"/>
				<line class="st12" x1="83.7" y1="99.5" x2="99.9" y2="99.5"/>
				<line class="st12" x1="70.5" y1="103.9" x2="75.6" y2="103.9"/>
				<line class="st12" x1="80" y1="103.9" x2="90.3" y2="103.9"/>
				<line class="st12" x1="70.5" y1="108.4" x2="74.9" y2="108.4"/>
				<line class="st12" x1="79.3" y1="108.4" x2="88.3" y2="108.4"/>
				<line class="st12" x1="70.5" y1="112.8" x2="78.2" y2="112.8"/>
				<line class="st12" x1="82.6" y1="112.8" x2="97.3" y2="112.8"/>
				<line class="st12" x1="91" y1="95.1" x2="95.1" y2="95.1"/>
				<line class="st12" x1="92.8" y1="108.4" x2="104.7" y2="108.4"/>
				<line class="st12" x1="94.8" y1="103.9" x2="99" y2="103.9"/>
				<rect x="117.2" y="79.2" class="st7" width="134.4" height="99.7"/>
				<path class="st7" d="M120.7,78.2"/>
				<circle class="st7" cx="126.1" cy="86.6" r="1.8"/>
				<circle class="st7" cx="133" cy="86.6" r="1.8"/>
				<path class="st10" d="M242.5,84.7H139.9c-1,0-1.8,0.8-1.8,1.8s0.8,1.8,1.8,1.8h102.6c1,0,1.8-0.8,1.8-1.8S243.5,84.7,242.5,84.7
					z"/>
				<path class="st2" d="M242.5,84.7H139.9c-1,0-1.8,0.8-1.8,1.8s0.8,1.8,1.8,1.8h102.6c1,0,1.8-0.8,1.8-1.8S243.5,84.7,242.5,84.7z
					"/>
				<line class="st2" x1="117.2" y1="94" x2="251.4" y2="94"/>
				<rect x="117.2" y="94" class="st8" width="134.4" height="84.8"/>
				<line class="st5" x1="128.8" y1="102.9" x2="148" y2="102.9"/>
				<line class="st5" x1="134.3" y1="107.4" x2="141.3" y2="107.4"/>
				<line class="st5" x1="156.9" y1="107.4" x2="159.4" y2="107.4"/>
				<line class="st5" x1="145.7" y1="107.4" x2="152.5" y2="107.4"/>
				<line class="st5" x1="134.3" y1="111.8" x2="144.4" y2="111.8"/>
				<line class="st5" x1="148.8" y1="111.8" x2="158.2" y2="111.8"/>
				<line class="st5" x1="162.6" y1="111.8" x2="166.3" y2="111.8"/>
				<line class="st5" x1="134.3" y1="116.2" x2="139.4" y2="116.2"/>
				<line class="st5" x1="149.9" y1="116.2" x2="157.2" y2="116.2"/>
				<line class="st5" x1="143.8" y1="116.2" x2="145.5" y2="116.2"/>
				<line class="st5" x1="134.3" y1="120.6" x2="141.3" y2="120.6"/>
				<line class="st5" x1="145.7" y1="120.6" x2="150.2" y2="120.6"/>
				<line class="st5" x1="134.3" y1="125" x2="138.5" y2="125"/>
				<line class="st5" x1="142.9" y1="125" x2="150.2" y2="125"/>
				<line class="st5" x1="134.3" y1="129.4" x2="143.1" y2="129.4"/>
				<line class="st5" x1="147.5" y1="129.4" x2="163.7" y2="129.4"/>
				<line class="st5" x1="134.3" y1="133.8" x2="139.4" y2="133.8"/>
				<line class="st5" x1="143.8" y1="133.8" x2="154.1" y2="133.8"/>
				<line class="st5" x1="134.3" y1="138.2" x2="138.7" y2="138.2"/>
				<line class="st5" x1="143.1" y1="138.2" x2="152.1" y2="138.2"/>
				<line class="st5" x1="134.3" y1="142.7" x2="142" y2="142.7"/>
				<line class="st5" x1="146.4" y1="142.7" x2="161.1" y2="142.7"/>
				<path class="st7" d="M150.5,108"/>
				<g>
					<rect x="175" y="135.6" class="st9" width="94.6" height="43.2"/>
					<circle class="st9" cx="183.8" cy="143" r="1.8"/>
					<circle class="st9" cx="190.8" cy="143" r="1.8"/>
					<path class="st9" d="M260.4,141.2h-62.7c-1,0-1.8,0.8-1.8,1.8s0.8,1.8,1.8,1.8h62.7c1,0,1.8-0.8,1.8-1.8
						S261.4,141.2,260.4,141.2L260.4,141.2L260.4,141.2z"/>
					<path class="st9" d="M260.4,141.2h-62.7c-1,0-1.8,0.8-1.8,1.8s0.8,1.8,1.8,1.8h62.7c1,0,1.8-0.8,1.8-1.8
						S261.4,141.2,260.4,141.2L260.4,141.2L260.4,141.2z"/>
					<line class="st13" x1="175" y1="150.4" x2="269.3" y2="150.4"/>
					<rect x="175" y="150.4" class="st9" width="94.6" height="28.4"/>
					<polyline class="st9" points="206.8,200.3 188.4,182.9 206.8,165.4 					"/>
					<polyline class="st9" points="237.7,200.3 256.2,182.9 237.7,165.4 					"/>
					<line class="st13" x1="225.8" y1="160.7" x2="218.8" y2="205.1"/>
				</g>
				<rect x="181" y="126.6" class="st7" width="94.6" height="79.7"/>
				<circle class="st7" cx="189.8" cy="134" r="1.8"/>
				<circle class="st7" cx="196.7" cy="134" r="1.8"/>
				<path class="st10" d="M266.4,132.2h-62.7c-1,0-1.8,0.8-1.8,1.8s0.8,1.8,1.8,1.8h62.7c1,0,1.8-0.8,1.8-1.8
					S267.4,132.2,266.4,132.2L266.4,132.2z"/>
				<path class="st2" d="M266.4,132.2h-62.7c-1,0-1.8,0.8-1.8,1.8s0.8,1.8,1.8,1.8h62.7c1,0,1.8-0.8,1.8-1.8
					S267.4,132.2,266.4,132.2L266.4,132.2z"/>
				<line class="st2" x1="181" y1="141.4" x2="275.3" y2="141.4"/>
				<rect x="181" y="141.4" class="st3" width="94.6" height="64.9"/>
				<polyline class="st14" points="215,188.9 199.1,173.9 215,158.9 				"/>
				<polyline class="st14" points="241.6,188.9 257.5,173.9 241.6,158.9 				"/>
				<line class="st14" x1="231.3" y1="154.8" x2="225.2" y2="193"/>
				<line class="st2" x1="143.1" y1="49.3" x2="143.1" y2="48.1"/>
				<line class="st15" x1="143.1" y1="46" x2="143.1" y2="38.7"/>
				<polyline class="st2" points="143.1,37.6 143.1,36.4 144.2,36.4 				"/>
				<line class="st16" x1="146.6" y1="36.4" x2="217.3" y2="36.4"/>
				<polyline class="st2" points="218.5,36.4 219.7,36.4 219.7,37.6 				"/>
				<line class="st17" x1="219.7" y1="40" x2="219.7" y2="76.2"/>
				<line class="st2" x1="219.7" y1="77.3" x2="219.7" y2="78.5"/>
				<line class="st2" x1="275.5" y1="166.5" x2="276.7" y2="166.5"/>
				<line class="st15" x1="278.9" y1="166.5" x2="286.2" y2="166.5"/>
				<polyline class="st2" points="287.3,166.5 288.5,166.5 288.5,165.3 				"/>
				<polyline class="st18" points="288.5,162.9 288.5,157.2 288.5,23.9 				"/>
				<polyline class="st2" points="288.5,22.7 288.5,21.5 287.3,21.5 				"/>
				<line class="st19" x1="284.9" y1="21.5" x2="100.6" y2="21.5"/>
				<polyline class="st2" points="99.5,21.5 98.2,21.5 98.2,22.7 				"/>
				<line class="st20" x1="98.2" y1="24.9" x2="98.2" y2="45.7"/>
				<line class="st2" x1="98.2" y1="46.8" x2="98.2" y2="48"/>
				<line class="st2" x1="53.4" y1="98.6" x2="52.2" y2="98.6"/>
				<line class="st21" x1="50.1" y1="98.6" x2="42.8" y2="98.6"/>
				<polyline class="st2" points="41.7,98.6 40.5,98.6 40.5,99.8 				"/>
				<polyline class="st22" points="40.5,102.2 40.5,175.7 40.5,216.9 				"/>
				<polyline class="st2" points="40.5,218.1 40.5,219.3 41.7,219.3 				"/>
				<polyline class="st22" points="44.1,219.3 181,219.3 225.9,219.3 				"/>
				<polyline class="st2" points="227.1,219.3 228.3,219.3 228.3,218.1 				"/>
				<line class="st21" x1="228.3" y1="216" x2="228.3" y2="208.6"/>
				<line class="st2" x1="228.3" y1="207.6" x2="228.3" y2="206.4"/>
				<polyline class="st2" points="86.4,148.9 86.4,148.9 86.4,150.1 				"/>
				<line class="st17" x1="86.4" y1="152.4" x2="86.4" y2="202.6"/>
				<polyline class="st2" points="86.4,203.8 86.4,205 87.6,205 				"/>
				<polyline class="st23" points="90,205 105.2,205 150.1,205 				"/>
				<polyline class="st2" points="151.3,205 152.5,205 152.5,203.8 				"/>
				<line class="st24" x1="152.5" y1="201.3" x2="152.5" y2="182.1"/>
				<line class="st2" x1="152.5" y1="180.8" x2="152.5" y2="179.6"/>
				<line class="st5" x1="120.7" y1="64.1" x2="120.7" y2="79.2"/>
			</g>
		</g>
	</g>
</g>
<g>
	<g>
		<g id="Main_2_">
			<g id="Wrappers_Icon">
				<path class="st7" d="M96.8,75.4h94c2.5,0,4.5,2,4.5,4.5v84.4c0,2.5-2,4.5-4.5,4.5h-94c-2.5,0-4.5-2-4.5-4.5V79.9
					C92.3,77.4,94.3,75.4,96.8,75.4z"/>
				<path class="st8" d="M195.3,90.3v76.1c0,1.4-1.1,2.5-2.5,2.5h-98c-1.4,0-2.5-1.1-2.5-2.5V90.3H195.3z"/>
				<circle class="st7" cx="100.8" cy="82.8" r="1.8"/>
				<circle class="st7" cx="107.7" cy="82.8" r="1.8"/>
				<path class="st10" d="M186.9,81h-72.2c-1,0-1.9,0.8-1.9,1.8s0.8,1.9,1.8,1.9l0,0h72.2c1,0,1.9-0.8,1.9-1.8S187.9,81,186.9,81z"
					/>
				<path class="st2" d="M186.9,81h-72.2c-1,0-1.9,0.8-1.9,1.8s0.8,1.9,1.8,1.9l0,0h72.2c1,0,1.9-0.8,1.9-1.8S187.9,81,186.9,81z"/>
				<polyline class="st25" points="69.9,142.3 69.9,238.7 121.4,238.7 121.4,142.3 69.9,142.3 				"/>
				<polyline class="st7" points="217.8,142.3 121.4,142.3 121.4,238.7 217.8,238.7 217.8,142.3 				"/>
				<rect x="87.4" y="155.8" class="st3" width="14.9" height="82.9"/>
				<rect x="159.1" y="155.8" class="st3" width="20.9" height="82.9"/>
				<rect x="69.9" y="142.3" class="st6" width="148" height="26.6"/>
				<polygon class="st7" points="121.4,142.3 69.9,142.3 48.5,161.7 100,161.7 				"/>
				<polygon class="st7" points="121.4,142.3 217.8,142.3 239.2,161.7 142.7,161.7 				"/>
				<rect x="186.9" y="223.3" class="st7" width="94.4" height="15.4"/>
				<rect x="163.7" y="223.3" class="st25" width="23.2" height="15.4"/>
				<rect x="216.9" y="223.3" class="st3" width="19.4" height="15.4"/>
				<path class="st3" d="M242.1,190.6c-9,0-16.2,7.3-16.2,16.2l0,0V223h16.2c9,0,16.2-7.3,16.2-16.2S251.1,190.6,242.1,190.6
					L242.1,190.6z M242.1,214.2h-7.5v-7.5c0-4.1,3.3-7.5,7.5-7.5c4.1,0,7.5,3.3,7.5,7.5S246.2,214.2,242.1,214.2L242.1,214.2z"/>
				<path class="st3" d="M193.4,206.8c0,9,7.3,16.2,16.2,16.2l0,0h16.2v-16.2c0-9-7.3-16.2-16.2-16.2S193.4,197.8,193.4,206.8
					L193.4,206.8z M202.2,206.8c0-4.1,3.4-7.5,7.5-7.5s7.5,3.4,7.5,7.5v7.5h-7.5C205.6,214.3,202.2,210.9,202.2,206.8L202.2,206.8
					L202.2,206.8z"/>
				<line class="st26" x1="143.8" y1="52.1" x2="143.8" y2="17.5"/>
				<line class="st26" x1="128.5" y1="53.2" x2="121.4" y2="21.7"/>
				<line class="st26" x1="113.4" y1="56.9" x2="100.8" y2="29.2"/>
				<line class="st26" x1="95.9" y1="62.2" x2="81.8" y2="42.6"/>
				<line class="st26" x1="81.5" y1="71.2" x2="65.5" y2="62"/>
				<line class="st26" x1="80.3" y1="87.9" x2="63.1" y2="87.9"/>
				<line class="st26" x1="159.2" y1="53.2" x2="166.3" y2="21.7"/>
				<line class="st26" x1="174.2" y1="56.9" x2="186.9" y2="29.2"/>
				<line class="st26" x1="191.8" y1="62.2" x2="205.9" y2="42.6"/>
				<line class="st26" x1="206.2" y1="71.2" x2="222.2" y2="62"/>
				<line class="st26" x1="207.3" y1="87.9" x2="224.6" y2="87.9"/>
				<line class="st5" x1="103" y1="96.3" x2="122.2" y2="96.3"/>
				<line class="st5" x1="108.5" y1="100.8" x2="115.5" y2="100.8"/>
				<line class="st5" x1="131.2" y1="100.8" x2="133.7" y2="100.8"/>
				<line class="st5" x1="119.9" y1="100.8" x2="126.7" y2="100.8"/>
				<line class="st5" x1="108.5" y1="105.2" x2="118.6" y2="105.2"/>
				<line class="st5" x1="123.1" y1="105.2" x2="132.5" y2="105.2"/>
				<line class="st5" x1="136.9" y1="105.2" x2="140.6" y2="105.2"/>
				<line class="st5" x1="108.5" y1="109.6" x2="113.6" y2="109.6"/>
				<line class="st5" x1="124.2" y1="109.6" x2="131.4" y2="109.6"/>
				<line class="st5" x1="118" y1="109.6" x2="119.7" y2="109.6"/>
				<line class="st5" x1="108.5" y1="114.1" x2="115.5" y2="114.1"/>
				<line class="st5" x1="119.9" y1="114.1" x2="124.5" y2="114.1"/>
				<line class="st5" x1="108.5" y1="118.5" x2="112.7" y2="118.5"/>
				<line class="st5" x1="117.1" y1="118.5" x2="124.5" y2="118.5"/>
				<line class="st5" x1="108.5" y1="122.9" x2="117.3" y2="122.9"/>
				<line class="st5" x1="121.7" y1="122.9" x2="138" y2="122.9"/>
				<line class="st5" x1="108.5" y1="127.3" x2="113.6" y2="127.3"/>
				<line class="st5" x1="118" y1="127.3" x2="128.3" y2="127.3"/>
				<line class="st5" x1="108.5" y1="131.8" x2="112.9" y2="131.8"/>
				<line class="st5" x1="117.3" y1="131.8" x2="126.4" y2="131.8"/>
				<line class="st5" x1="108.5" y1="136.2" x2="116.2" y2="136.2"/>
				<line class="st5" x1="120.6" y1="136.2" x2="135.4" y2="136.2"/>
			</g>
		</g>
	</g>
</g>
</svg>
